# Blender v2.78 (sub 0) OBJ File: 'Table-Final.blend'
# www.blender.org
mtllib Table-Final-uvmapped.mtl
o Plane-orthographic.005_Plane.008
v -3.659392 -3.659392 1.680000
v 3.659392 -3.659392 1.680000
v -3.659392 3.659392 1.680001
v 3.659392 3.659392 1.680001
vt 0.6000 0.0001
vt 0.8000 0.0001
vt 0.8000 0.9999
vt 0.6000 0.9999
vn 0.0000 -0.0000 1.0000
usemtl m1
s off
f 1/1/1 2/2/1 4/3/1 3/4/1
o Plane-orthographic.004_Plane.005
v 3.659385 -3.659398 -1.680000
v -3.659398 -3.659385 -1.680000
v 3.659398 3.659385 -1.680001
v -3.659385 3.659398 -1.680001
vt 0.8000 0.0001
vt 0.9999 0.0001
vt 0.9999 0.9999
vt 0.8000 0.9999
vn 0.0000 -0.0000 -1.0000
usemtl m1_table2.png
s off
f 5/5/2 6/6/2 8/7/2 7/8/2
o Plane-orthographic.003_Plane.004
v -3.355000 -3.659394 -3.659389
v -3.355001 -3.659389 3.659394
v -3.354999 3.659389 -3.659394
v -3.355000 3.659394 3.659389
vt 0.4000 0.0001
vt 0.6000 0.0001
vt 0.6000 0.9999
vt 0.4000 0.9999
vn -1.0000 0.0000 -0.0000
usemtl m1_table3.png
s off
f 9/9/3 10/10/3 12/11/3 11/12/3
o Plane-orthographic.002_Plane.003
v 3.355000 -3.659394 3.659389
v 3.355000 -3.659389 -3.659394
v 3.355000 3.659389 3.659394
v 3.355000 3.659394 -3.659389
vt 0.2000 0.0001
vt 0.4000 0.0001
vt 0.4000 0.9999
vt 0.2000 0.9999
vn 1.0000 0.0000 -0.0000
usemtl m1_table2.png
s off
f 13/13/4 14/14/4 16/15/4 15/16/4
o Plane-orthographic.001_Plane.002
v 3.659395 1.200000 3.659389
v 3.659389 1.200000 -3.659395
v -3.659389 1.200000 3.659395
v -3.659395 1.200000 -3.659389
vt 0.0001 0.0001
vt 0.2000 0.0001
vt 0.2000 0.9999
vt 0.0001 0.9999
vn 0.0000 1.0000 -0.0000
usemtl m1_uvmap.png
s off
f 17/17/5 18/18/5 20/19/5 19/20/5
